<svg xmlns="http://www.w3.org/2000/svg" width="24" height="24" viewBox="0 0 24 24"><defs><style>.a{fill:rgba(255,255,255,0);}.b{fill:#333;}</style></defs><g transform="translate(-160 -1336)"><rect class="a" width="24" height="24" transform="translate(160 1336)"/><path class="b" d="M17.5,3.388H7.961A2.206,2.206,0,0,0,5.729,5.566v11.52a2.205,2.205,0,0,0,2.232,2.178H17.5a2.205,2.205,0,0,0,2.233-2.178V5.566A2.206,2.206,0,0,0,17.5,3.388Zm-7.737,9.4a.558.558,0,0,1-1.116,0V9.947a.558.558,0,0,1,1.116,0Z" transform="translate(159.271 1335.612)"/><path class="b" d="M7.478,18.97H7.056v.7a.422.422,0,0,0,.422.422H9.725a.422.422,0,0,0,.422-.422v-.7H7.478Z" transform="translate(159.271 1336.912)"/><path class="b" d="M14.276,18.97h-.422v.7a.421.421,0,0,0,.422.422h2.246a.422.422,0,0,0,.422-.422v-.7H14.276Z" transform="translate(160.729 1336.912)"/></g></svg>